<?xml version="1.0" encoding="UTF-8" standalone="no"?>
<!-- Created with Inkscape (http://www.inkscape.org/) -->

<svg
   width="147mm"
   height="147mm"
   viewBox="0 0 147 147"
   version="1.1"
   id="svg1"
   xml:space="preserve"
   inkscape:version="1.3 (0e150ed6c4, 2023-07-21)"
   sodipodi:docname="gopher.svg"
   xmlns:inkscape="http://www.inkscape.org/namespaces/inkscape"
   xmlns:sodipodi="http://sodipodi.sourceforge.net/DTD/sodipodi-0.dtd"
   xmlns="http://www.w3.org/2000/svg"
   xmlns:svg="http://www.w3.org/2000/svg"><sodipodi:namedview
     id="namedview1"
     pagecolor="#505050"
     bordercolor="#eeeeee"
     borderopacity="1"
     inkscape:showpageshadow="0"
     inkscape:pageopacity="0"
     inkscape:pagecheckerboard="0"
     inkscape:deskcolor="#505050"
     inkscape:document-units="mm"
     inkscape:zoom="0.48786247"
     inkscape:cx="392.52866"
     inkscape:cy="214.19971"
     inkscape:window-width="1296"
     inkscape:window-height="699"
     inkscape:window-x="0"
     inkscape:window-y="0"
     inkscape:window-maximized="1"
     inkscape:current-layer="layer2"
     showguides="true" /><defs
     id="defs1" /><g
     inkscape:label="Layer 1"
     inkscape:groupmode="layer"
     id="layer1" /><g
     inkscape:groupmode="layer"
     id="layer2"
     inkscape:label="Layer 2"><g
       id="g82"
       transform="matrix(1.0039238,0,0,1.0039238,-26.599178,-52.544857)"><g
         id="g80"
         transform="matrix(2.1239903,0,0,2.1239903,-879.00864,-631.79183)"><path
           style="fill:#bee2e7;fill-opacity:1;stroke:#1d1d1d;stroke-width:0.5;stroke-dasharray:none;stroke-opacity:1"
           d="m 444.09003,373.33288 c -0.68431,0.85873 -1.86113,-16.95656 -0.87142,-21.05594 0.85025,-3.52172 3.91532,-8.43242 9.93822,-10.48902 7.124,-2.43257 12.78756,-0.96602 17.48749,1.27028 4.47864,2.131 7.33698,6.60937 7.44826,16.00191 0.11128,9.39253 -0.72879,14.32566 -0.72879,14.32566 z"
           id="path24"
           sodipodi:nodetypes="csssscc" /><path
           style="fill:#98b5b9;fill-opacity:1;stroke:#98b5b9;stroke-width:0.474495;stroke-dasharray:none;stroke-opacity:1"
           d="m 447.42725,368.46954 c 0,0 2.8596,0.0364 3.36041,-0.24637 0.79278,-0.44756 -3.70513,1.8916 -3.5675,0.93526 0.0751,-0.52187 0.58114,-1.12872 0.20731,-0.68887 z"
           id="path28"
           inkscape:label="path28"
           sodipodi:nodetypes="csscc" /><path
           style="fill:#d5ebe7;fill-opacity:0.5;stroke:none;stroke-width:0.499999;stroke-dasharray:none;stroke-opacity:0.5"
           d="m 458.87936,349.22568 c 0,0 -0.6437,-0.75936 0.11566,-1.38952 0.81945,-0.68001 1.30561,0.43568 2.11457,0.3905 0.80897,-0.0452 1.06768,-0.88795 1.92222,-0.42077 0.88092,0.48161 0.35187,1.48873 -0.0279,1.86919 -0.52185,0.52279 -0.62642,0.93416 -0.74451,1.33514 -0.23354,0.793 -0.28661,1.73407 -1.2643,1.68411 -0.86591,-0.0443 -0.6319,-1.38125 -1.10606,-2.0121 -0.47416,-0.63087 -1.00968,-1.45655 -1.00968,-1.45655 z"
           id="path30"
           sodipodi:nodetypes="cszsssssc" /><path
           style="fill:#98b5b9;fill-opacity:1;stroke:none;stroke-width:0.499999;stroke-dasharray:none;stroke-opacity:0.5"
           d="m 467.45807,341.97539 c 8.24948,4.91696 9.10216,14.97006 9.6854,31.51854 0.2357,-3.75127 0.60366,-7.81445 0.65858,-12.3775 0.0537,-4.37978 -0.0915,-6.71195 -0.62589,-8.69012 -0.82906,-2.61529 -1.15314,-7.64566 -9.71809,-10.45092 z"
           id="path31"
           sodipodi:nodetypes="ccccc" /><path
           style="fill:#98b5b9;fill-opacity:1;stroke:#1d1d1d;stroke-width:0.5;stroke-linecap:round;stroke-dasharray:none;stroke-opacity:1"
           d="m 444.85171,363.9472 -0.003,0.53655"
           id="path32" /><path
           style="fill:#98b5b9;fill-opacity:1;stroke:#1d1d1d;stroke-width:0.5;stroke-linecap:round;stroke-dasharray:none;stroke-opacity:1"
           d="m 445.612,364.59168 -0.003,0.53655"
           id="path33" /><path
           style="fill:#98b5b9;fill-opacity:1;stroke:#1d1d1d;stroke-width:0.5;stroke-linecap:round;stroke-dasharray:none;stroke-opacity:1"
           d="m 444.64985,365.70179 -0.003,0.53655"
           id="path34" /><path
           style="fill:#98b5b9;fill-opacity:1;stroke:#1d1d1d;stroke-width:0.5;stroke-linecap:round;stroke-dasharray:none;stroke-opacity:1"
           d="m 445.50183,366.5274 -0.003,0.53655"
           id="path35" /><path
           style="fill:#98b5b9;fill-opacity:1;stroke:#1d1d1d;stroke-width:0.454018;stroke-linecap:round;stroke-dasharray:none;stroke-opacity:1"
           d="m 475.06261,346.52298 c 0.0674,0.2723 2.35871,-0.55156 2.99221,-1.3393 0.5527,-0.68726 0.73015,-2.18682 -0.67852,-2.75698 -1.03677,-0.41963 -1.85485,0.18359 -2.18392,1.06541 -0.40521,1.08589 -1.46677,1.4874 -1.46677,1.4874 z"
           id="path36"
           sodipodi:nodetypes="cssscc" /><path
           style="fill:#bee2e7;fill-opacity:1;stroke:none;stroke-width:0.499999;stroke-linecap:round;stroke-dasharray:none;stroke-opacity:1"
           d="m 476.2289,342.63658 c 0.95888,-0.2194 2.01312,0.98696 1.56691,2.46593 0.4466,-0.36237 0.46721,-0.92051 0.39804,-1.41275 -0.0692,-0.49224 -0.36176,-0.68706 -0.5291,-0.84842 -0.47601,-0.45899 -1.50864,-0.31621 -1.43585,-0.20476 z"
           id="path37"
           sodipodi:nodetypes="cczsc" /><path
           style="fill:none;fill-opacity:1;stroke:#1d1d1d;stroke-width:0.499999;stroke-linecap:round;stroke-dasharray:none;stroke-opacity:1"
           d="m 474.56373,345.84716 c 0,0 1.76549,-0.95393 1.70478,-1.85533"
           id="path38"
           sodipodi:nodetypes="cc" /><path
           style="fill:none;fill-opacity:1;stroke:#1d1d1d;stroke-width:0.499999;stroke-linecap:round;stroke-dasharray:none;stroke-opacity:1"
           d="m 475.89328,344.84438 c 0,0 0.6246,-0.57368 1.03235,-0.42925"
           id="path39"
           sodipodi:nodetypes="cc" /><path
           style="fill:#bee2e7;fill-opacity:1;stroke:#1d1d1d;stroke-width:0.499999;stroke-linecap:round;stroke-dasharray:none;stroke-opacity:1"
           d="m 446.46892,346.18067 -1.14669,-1.11975 c -1.01127,-1.04001 -0.7554,-2.03806 -0.22491,-2.60516 0.37812,-0.37495 0.94428,-0.65349 1.9984,0.19254 0,0 1.58351,1.424 2.01379,1.15715 1.10338,-0.6843 -1.68301,1.16419 -2.64059,2.37522 z"
           id="path40"
           sodipodi:nodetypes="ccccsc" /><path
           style="fill:#98b5b9;fill-opacity:1;stroke:none;stroke-width:0.499999;stroke-linecap:round;stroke-dasharray:none;stroke-opacity:1"
           d="m 446.43105,345.80994 c 0.55311,-0.68953 0.13477,-1.27936 0.2516,-1.60904 -0.61218,-0.77485 0.77475,0.43072 1.88033,-0.21805 z"
           id="path43"
           sodipodi:nodetypes="cccc" /><path
           style="fill:#bee2e7;fill-opacity:1;stroke:#1d1d1d;stroke-width:0.499999;stroke-linecap:round;stroke-dasharray:none;stroke-opacity:1"
           d="m 446.03207,344.12046 c 0,0 0.65652,-0.12301 1.33694,0.9027"
           id="path41" /><path
           style="fill:#bee2e7;fill-opacity:1;stroke:#1d1d1d;stroke-width:0.499999;stroke-linecap:round;stroke-dasharray:none;stroke-opacity:1"
           d="m 446.66943,343.49351 c 0,0 0.16823,1.22533 0.84322,1.47066"
           id="path42" /><path
           style="fill:#cccccc;fill-opacity:1;stroke:#1d1d1d;stroke-width:0.499999;stroke-linecap:round;stroke-dasharray:none;stroke-opacity:1"
           d="m 452.05926,342.52384 c 2.19818,-5.56776 1.98405,-10.97296 0.92434,-17.51236 2.84264,-0.27583 10.65171,-0.77608 17.70068,0.61384 -1.30667,6.09571 -3.23382,11.90798 -0.37015,17.62409"
           id="path46"
           sodipodi:nodetypes="cccc" /><path
           style="fill:#ffffff;fill-opacity:1;stroke:#000000;stroke-width:0.2;stroke-linecap:round;stroke-dasharray:none;stroke-opacity:1"
           d="m 462.39661,363.94729 c 1.9172,-0.52878 2.31845,0.79785 1.83846,1.74344 -0.47999,0.94559 -1.12542,1.67453 -1.12542,1.67453 0,0 0.0513,-1.10406 -0.1556,-1.31258 -0.20689,-0.20851 -0.23796,0.0688 -0.49251,1.35396 -0.17096,0.86312 -0.0929,3.29786 -0.0929,3.29786 -0.17016,0.40959 -0.8866,-1.60062 -1.04261,-2.51767 0,0 0.0102,2.36622 0.014,2.83383 0.003,0.33291 -1.49042,-3.36177 -1.55391,-4.35815 -0.0635,-0.99638 -0.12028,-1.15413 -0.29969,-0.56728 -0.16741,0.5476 -0.10757,1.43398 -0.10757,1.43398 0,0 -0.8402,-1.5328 -0.80885,-2.1058 0.0111,-0.20315 -0.16257,-0.33668 -0.39818,0.80722 -0.24172,1.17359 -1.98027,-2.4672 0.13484,-2.53196 2.11511,-0.0648 2.17275,0.7774 4.08994,0.24862 z"
           id="path47"
           sodipodi:nodetypes="zscssccszscsszz" /><path
           style="fill:#cccccc;fill-opacity:1;stroke:none;stroke-width:0.499999;stroke-linecap:round;stroke-dasharray:none;stroke-opacity:1"
           d="m 461.25849,370.34434 c 0,0 -0.32809,-3.33014 -0.0678,-3.68056 0.57028,-0.36109 0.10291,2.37032 0.0678,3.68056 z"
           id="path48"
           sodipodi:nodetypes="ccc" /><path
           style="fill:#cccccc;fill-opacity:1;stroke:none;stroke-width:0.499999;stroke-linecap:round;stroke-dasharray:none;stroke-opacity:1"
           d="m 462.37217,369.64285 c 0,0 -0.47724,-3.52377 0.30594,-3.7289 0.51511,0.0279 -0.49163,0.59109 -0.30594,3.7289 z"
           id="path49"
           sodipodi:nodetypes="ccc" /><path
           style="fill:#cccccc;fill-opacity:1;stroke:none;stroke-width:0.499999;stroke-linecap:round;stroke-dasharray:none;stroke-opacity:1"
           d="m 457.65983,365.82701 c -0.0732,-0.0152 -0.2545,-1.13484 0.17157,-1.66223 0.30356,-0.37575 0.53911,-0.1925 0.18115,0.14553 -0.35796,0.33803 -0.35255,1.51671 -0.35255,1.51671 z"
           id="path50"
           sodipodi:nodetypes="cszcc" /><path
           style="fill:#cccccc;fill-opacity:1;stroke:none;stroke-width:0.499999;stroke-linecap:round;stroke-dasharray:none;stroke-opacity:1"
           d="m 459.14288,366.70896 c -0.0743,0.008 -0.59653,-0.99839 -0.3567,-1.63254 0.17087,-0.45182 0.4519,-0.3514 0.21757,0.0816 -0.23434,0.43299 0.13929,1.5509 0.13929,1.5509 z"
           id="path51"
           sodipodi:nodetypes="cszcc" /><path
           style="fill:#cccccc;fill-opacity:1;stroke:none;stroke-width:0.510297;stroke-linecap:round;stroke-dasharray:none;stroke-opacity:1"
           d="m 457.98945,366.2832 c -0.0792,-0.002 -0.48604,-1.04986 -0.14442,-1.6358 0.24339,-0.41747 0.5246,-0.28297 0.21716,0.10788 -0.30745,0.39084 -0.0725,1.5279 -0.0725,1.5279 z"
           id="path52"
           sodipodi:nodetypes="cszcc" /><path
           style="fill:#cccccc;fill-opacity:1;stroke:none;stroke-width:0.499999;stroke-linecap:round;stroke-dasharray:none;stroke-opacity:1"
           d="m 463.74485,366.18096 c 0.0743,0.008 0.59653,-0.99839 0.3567,-1.63254 -0.17087,-0.45182 -0.4519,-0.3514 -0.21757,0.0816 0.23434,0.43299 -0.13929,1.5509 -0.13929,1.5509 z"
           id="path53"
           sodipodi:nodetypes="cszcc" /><path
           style="fill:#cccccc;fill-opacity:1;stroke:none;stroke-width:0.499999;stroke-linecap:round;stroke-dasharray:none;stroke-opacity:1"
           d="m 460.64591,368.74318 c 0,0 -1.27246,-3.32047 -0.55717,-3.69971 0.50778,-0.0909 -0.34301,0.68807 0.55717,3.69971 z"
           id="path54"
           sodipodi:nodetypes="ccc" /><path
           style="fill:#cccccc;fill-opacity:1;stroke:none;stroke-width:0.499999;stroke-linecap:round;stroke-dasharray:none;stroke-opacity:1"
           d="m 463.53003,365.9912 c 0.0744,-0.007 0.39122,-1.09526 0.0328,-1.67073 -0.25538,-0.41002 -0.51155,-0.25692 -0.19757,0.12231 0.31399,0.37922 0.16465,1.54841 0.16465,1.54841 z"
           id="path55"
           sodipodi:nodetypes="cszcc" /><path
           style="fill:#cccccc;fill-opacity:1;stroke:none;stroke-width:0.510297;stroke-linecap:round;stroke-dasharray:none;stroke-opacity:1"
           d="m 457.90852,366.15232 c -0.0792,-0.002 -0.48604,-1.04986 -0.14442,-1.6358 0.24339,-0.41747 0.5246,-0.28297 0.21716,0.10788 -0.30745,0.39084 -0.0725,1.5279 -0.0725,1.5279 z"
           id="path56"
           sodipodi:nodetypes="cszcc" /><path
           style="fill:#cccccc;fill-opacity:1;stroke:none;stroke-width:0.499999;stroke-linecap:round;stroke-dasharray:none;stroke-opacity:1"
           d="m 462.04286,370.37727 c 0,0 -1.06602,-3.17192 -0.89088,-3.57176 0.47485,-0.4797 0.63148,2.28698 0.89088,3.57176 z"
           id="path57"
           sodipodi:nodetypes="ccc" /><path
           style="fill:#cccccc;fill-opacity:1;stroke:none;stroke-width:0.499999;stroke-linecap:round;stroke-dasharray:none;stroke-opacity:1"
           d="m 461.93214,369.40183 c 0,0 0.43914,-3.52872 -0.34622,-3.72538 -0.51476,0.0335 0.49799,0.58575 0.34622,3.72538 z"
           id="path58"
           sodipodi:nodetypes="ccc" /><path
           style="fill:#cccccc;fill-opacity:1;stroke:none;stroke-width:0.499999;stroke-linecap:round;stroke-dasharray:none;stroke-opacity:1"
           d="m 463.53003,365.9912 c 0.0744,-0.007 0.39122,-1.09526 0.0328,-1.67073 -0.25538,-0.41002 -0.51155,-0.25692 -0.19757,0.12231 0.31399,0.37922 0.16465,1.54841 0.16465,1.54841 z"
           id="path59"
           sodipodi:nodetypes="cszcc" /><path
           style="fill:#cccccc;fill-opacity:1;stroke:none;stroke-width:0.499999;stroke-linecap:round;stroke-dasharray:none;stroke-opacity:1"
           d="m 460.96829,369.22185 c 0,0 -1.27246,-3.32047 -0.55717,-3.69971 0.50778,-0.0909 -0.34301,0.68807 0.55717,3.69971 z"
           id="path60"
           sodipodi:nodetypes="ccc" /><path
           style="fill:#cccccc;fill-opacity:1;stroke:none;stroke-width:0.499999;stroke-linecap:round;stroke-dasharray:none;stroke-opacity:1"
           d="m 459.21665,366.54817 c -0.0743,0.008 -0.59653,-0.99839 -0.3567,-1.63254 0.17087,-0.45182 0.4519,-0.3514 0.21757,0.0816 -0.23434,0.43299 0.13929,1.5509 0.13929,1.5509 z"
           id="path61"
           sodipodi:nodetypes="cszcc" /><path
           style="fill:#cccccc;fill-opacity:1;stroke:none;stroke-width:0.499999;stroke-linecap:round;stroke-dasharray:none;stroke-opacity:1"
           d="m 463.73621,365.97143 c 0.0744,-0.007 0.39122,-1.09526 0.0328,-1.67073 -0.25538,-0.41002 -0.51155,-0.25692 -0.19757,0.12231 0.31399,0.37922 0.16465,1.54841 0.16465,1.54841 z"
           id="path62"
           sodipodi:nodetypes="cszcc" /><path
           style="fill:#cccccc;fill-opacity:1;stroke:#cccccc;stroke-width:0.2;stroke-linecap:round;stroke-dasharray:none;stroke-opacity:1"
           d="m 458.97859,363.89716 c 1.11199,0.0724 1.14228,0.31204 1.89237,0.36843 0.47814,0.0359 1.07395,-0.007 1.97388,-0.21836 0.38395,-0.12155 -0.32132,0.24925 -0.42031,0.30475 -0.42525,0.2384 -0.97822,0.15872 -1.16722,0.22002 -1.25236,-0.0573 -2.5794,-0.77179 -2.27872,-0.67484 z"
           id="path63"
           sodipodi:nodetypes="cscscc" /><path
           style="fill:#cccccc;fill-opacity:1;stroke:none;stroke-width:0.499999;stroke-linecap:round;stroke-dasharray:none;stroke-opacity:1"
           d="m 462.33454,366.07355 c 0.0722,-0.019 0.20822,-1.14424 -0.23886,-1.6539 -0.31855,-0.36312 -0.54642,-0.17065 -0.1751,0.15276 0.3714,0.32322 0.41384,1.50115 0.41384,1.50115 z"
           id="path64"
           sodipodi:nodetypes="cszcc" /><path
           style="fill:#cccccc;fill-opacity:1;stroke:none;stroke-width:0.360047;stroke-linecap:round;stroke-dasharray:none;stroke-opacity:1"
           d="m 459.31311,365.39031 c -0.0408,-0.0274 0.12006,-0.91719 0.51029,-1.23011 0.278,-0.22294 0.37809,-0.0345 0.0759,0.14854 -0.30226,0.18289 -0.58606,1.0816 -0.58606,1.0816 z"
           id="path65"
           sodipodi:nodetypes="cszcc" /><path
           style="fill:#cccccc;fill-opacity:1;stroke:none;stroke-width:0.276573;stroke-linecap:round;stroke-dasharray:none;stroke-opacity:1"
           d="m 462.30677,365.10432 c 0.0502,-0.008 0.14475,-0.5036 -0.16606,-0.7279 -0.22146,-0.15982 -0.37988,-0.0751 -0.12173,0.0672 0.2582,0.14225 0.2877,0.66067 0.2877,0.66067 z"
           id="path66"
           sodipodi:nodetypes="cszcc" /><path
           style="fill:#cccccc;fill-opacity:1;stroke:none;stroke-width:0.276573;stroke-linecap:round;stroke-dasharray:none;stroke-opacity:1"
           d="m 461.84499,365.01873 c 0.0502,-0.008 0.14475,-0.5036 -0.16606,-0.7279 -0.22146,-0.15982 -0.37988,-0.0751 -0.12173,0.0672 0.2582,0.14225 0.2877,0.66067 0.2877,0.66067 z"
           id="path67"
           sodipodi:nodetypes="cszcc" /><path
           style="fill:#cccccc;fill-opacity:1;stroke:none;stroke-width:0.276573;stroke-linecap:round;stroke-dasharray:none;stroke-opacity:1"
           d="m 459.72261,364.84738 c -0.0502,-0.008 -0.14475,-0.5036 0.16606,-0.7279 0.22146,-0.15982 0.37988,-0.0751 0.12173,0.0672 -0.2582,0.14225 -0.2877,0.66067 -0.2877,0.66067 z"
           id="path68"
           sodipodi:nodetypes="cszcc" /><path
           style="fill:#cccccc;fill-opacity:1;stroke:none;stroke-width:0.276573;stroke-linecap:round;stroke-dasharray:none;stroke-opacity:1"
           d="m 459.37377,364.56996 c -0.0362,-0.0357 0.17483,-0.49396 0.55811,-0.4959 0.27311,-10e-4 0.35281,0.15962 0.06,0.12542 -0.29279,-0.0343 -0.61804,0.37051 -0.61804,0.37051 z"
           id="path69"
           sodipodi:nodetypes="cszcc" /><path
           style="fill:#cccccc;fill-opacity:1;stroke:none;stroke-width:0.276573;stroke-linecap:round;stroke-dasharray:none;stroke-opacity:1"
           d="m 459.25405,365.72384 c -0.046,0.0215 -0.40178,-0.33635 -0.26972,-0.69617 0.0945,-0.25624 0.2728,-0.27483 0.13847,-0.0124 -0.13437,0.26237 0.1313,0.70852 0.1313,0.70852 z"
           id="path70"
           sodipodi:nodetypes="cszcc" /><path
           style="fill:#cccccc;fill-opacity:1;stroke:none;stroke-width:0.276573;stroke-linecap:round;stroke-dasharray:none;stroke-opacity:1"
           d="m 458.69749,365.45451 c -0.0498,-0.0102 -0.12203,-0.50958 0.19852,-0.71972 0.22864,-0.14938 0.38286,-0.058 0.11856,0.0726 -0.2643,0.13053 -0.31701,0.64711 -0.31701,0.64711 z"
           id="path71"
           sodipodi:nodetypes="cszcc" /><path
           style="fill:#cccccc;fill-opacity:1;stroke:none;stroke-width:0.276573;stroke-linecap:round;stroke-dasharray:none;stroke-opacity:1"
           d="m 458.36474,364.03341 c -0.0158,-0.0483 0.38195,-0.35871 0.72341,-0.18461 0.24313,0.1244 0.45787,0.25103 -0.004,0.13897 -0.46187,-0.11206 -0.71914,0.0457 -0.71914,0.0457 z"
           id="path72"
           sodipodi:nodetypes="cszcc" /><path
           style="fill:#cccccc;fill-opacity:1;stroke:none;stroke-width:0.276573;stroke-linecap:round;stroke-dasharray:none;stroke-opacity:1"
           d="m 463.2046,365.05501 c 0.0474,0.0184 0.37898,-0.36186 0.22371,-0.7123 -0.11064,-0.24969 -0.29014,-0.25642 -0.139,-0.003 0.15121,0.25305 -0.0848,0.71559 -0.0848,0.71559 z"
           id="path74"
           sodipodi:nodetypes="cszcc" /><path
           style="fill:#f0f0f0;fill-opacity:1;stroke:none;stroke-width:0.499999;stroke-linecap:round;stroke-dasharray:none;stroke-opacity:1"
           d="m 452.35067,342.08446 c 2.19818,-5.56776 1.78306,-10.55099 0.72335,-17.09039 1.70214,-0.16516 4.57132,-0.16187 8.60539,-0.034 -8.83844,0.33394 -6.37827,8.49308 -6.32095,18.00457"
           id="path75"
           sodipodi:nodetypes="cccc" /><path
           style="fill:#cccccc;fill-opacity:1;stroke:none;stroke-width:0.276573;stroke-linecap:round;stroke-dasharray:none;stroke-opacity:1"
           d="m 463.60498,364.13803 c 0.0158,-0.0483 -0.38195,-0.35871 -0.72341,-0.18461 -0.24313,0.1244 -0.45787,0.25103 0.004,0.13897 0.46187,-0.11206 0.71914,0.0457 0.71914,0.0457 z"
           id="path76"
           sodipodi:nodetypes="cszcc" /><path
           style="fill:#2d6791;fill-opacity:1;stroke:#1d1d1d;stroke-width:0.499999;stroke-linecap:round;stroke-dasharray:none;stroke-opacity:1"
           d="m 452.09945,341.72681 c 0.79948,-2.02499 1.27986,-4.02848 1.51652,-6.07285 5.072,0.62493 10.15053,0.86996 15.24214,0.35291 0.18837,3.5005 0.95619,4.47686 1.49621,6.44551"
           id="path77"
           sodipodi:nodetypes="cccc" /><path
           style="fill:#ffffff;fill-opacity:1;stroke-width:0.0872549"
           d="m 461.33124,337.10517 0.47179,0.95596 c 0.0328,0.0665 0.0962,0.11256 0.16963,0.12321 l 1.055,0.15331 c 0.1848,0.0269 0.25853,0.25391 0.12486,0.38418 l -0.7634,0.74411 c -0.0531,0.0518 -0.0773,0.12635 -0.0648,0.19938 l 0.18018,1.05072 c 0.0316,0.18403 -0.16159,0.32433 -0.32685,0.23751 l -0.94358,-0.49604 c -0.0656,-0.0344 -0.14406,-0.0344 -0.20968,0 l -0.94357,0.49604 c -0.16526,0.0869 -0.35845,-0.0534 -0.32686,-0.23751 l 0.18019,-1.05072 c 0.0126,-0.073 -0.0117,-0.14763 -0.0648,-0.19938 l -0.76339,-0.74411 c -0.13367,-0.13036 -0.0599,-0.35739 0.12486,-0.38418 l 1.055,-0.15331 c 0.0734,-0.0106 0.13682,-0.0567 0.16963,-0.12321 l 0.47178,-0.95596 c 0.0826,-0.16744 0.32127,-0.16744 0.40391,0 z"
           id="path1-9" /><path
           style="fill:#ffffff;fill-opacity:1;stroke-width:0.0729932"
           d="m 455.98868,336.77706 0.39468,0.79971 c 0.0274,0.0556 0.0805,0.0942 0.1419,0.10307 l 0.88257,0.12825 c 0.15459,0.0225 0.21627,0.21241 0.10445,0.32139 l -0.63863,0.62248 c -0.0444,0.0433 -0.0647,0.1057 -0.0542,0.16679 l 0.15073,0.87898 c 0.0264,0.15395 -0.13518,0.27132 -0.27343,0.19869 l -0.78935,-0.41496 c -0.0549,-0.0288 -0.12052,-0.0288 -0.17541,0 l -0.78935,0.41496 c -0.13824,0.0727 -0.29986,-0.0447 -0.27343,-0.19869 l 0.15074,-0.87898 c 0.0105,-0.0611 -0.01,-0.1235 -0.0542,-0.16679 l -0.63862,-0.62248 c -0.11182,-0.10906 -0.0501,-0.29898 0.10446,-0.32139 l 0.88256,-0.12825 c 0.0614,-0.009 0.11445,-0.0474 0.1419,-0.10307 l 0.39467,-0.79971 c 0.0691,-0.14007 0.26876,-0.14007 0.33789,0 z"
           id="path78" /><path
           style="fill:#ffffff;fill-opacity:1;stroke-width:0.0729932"
           d="m 466.70047,337.08338 0.39468,0.79971 c 0.0274,0.0556 0.0805,0.0942 0.1419,0.10307 l 0.88257,0.12825 c 0.15459,0.0225 0.21627,0.21241 0.10445,0.32139 l -0.63863,0.62248 c -0.0444,0.0433 -0.0647,0.1057 -0.0542,0.16679 l 0.15073,0.87898 c 0.0264,0.15395 -0.13518,0.27132 -0.27343,0.19869 l -0.78935,-0.41496 c -0.0549,-0.0288 -0.12052,-0.0288 -0.17541,0 l -0.78935,0.41496 c -0.13824,0.0727 -0.29986,-0.0447 -0.27343,-0.19869 l 0.15074,-0.87898 c 0.0105,-0.0611 -0.01,-0.1235 -0.0542,-0.16679 l -0.63862,-0.62248 c -0.11182,-0.10906 -0.0501,-0.29898 0.10446,-0.32139 l 0.88256,-0.12825 c 0.0614,-0.009 0.11445,-0.0474 0.1419,-0.10307 l 0.39467,-0.79971 c 0.0691,-0.14007 0.26876,-0.14007 0.33789,0 z"
           id="path79" /><path
           style="fill:#ba1111;fill-opacity:1;stroke:#1d1d1d;stroke-width:0.2;stroke-linecap:round;stroke-dasharray:none;stroke-opacity:1"
           d="m 452.09953,342.08599 c 0.20738,-0.52527 0.43549,-1.03809 0.60124,-1.56155 5.37549,0.91176 10.98647,1.10733 17.13745,0.37535 0.1769,0.4945 0.59213,1.43325 0.75023,2.0096"
           id="path80"
           sodipodi:nodetypes="cccc" /><path
           style="fill:#f0f0f0;fill-opacity:1;stroke:#1d1d1d;stroke-width:0.558972;stroke-linecap:round;stroke-dasharray:none;stroke-opacity:1"
           d="m 448.72689,341.02373 c -0.1256,0.30771 -0.43042,1.23803 -0.43042,1.23803 8.51977,1.5439 17.17215,1.72357 25.92026,0.91854 l -0.39802,-1.46671 c -8.14589,0.9812 -16.50252,0.79187 -25.09182,-0.68988 z"
           id="path44"
           sodipodi:nodetypes="ccccc" /><g
           id="g25"
           transform="translate(-0.00796146,-0.01419217)"><ellipse
             style="fill:#cccccc;fill-opacity:1;stroke:#1d1d1b;stroke-width:0.500137;stroke-dasharray:none;stroke-opacity:1"
             id="ellipse13"
             cx="401.68637"
             cy="442.05307"
             rx="6.185648"
             ry="5.683219"
             transform="matrix(0.97842006,-0.20662564,0.17409603,0.98472868,0,0)"
             inkscape:label="ellipse13" /><ellipse
             style="fill:#ffffff;fill-opacity:1;stroke:none;stroke-width:0.324455;stroke-opacity:1"
             id="path15"
             cx="469.42767"
             cy="352.53491"
             rx="5.3784032"
             ry="5.2675972" /><g
             id="g17"><ellipse
               style="fill:#1d1d1d;fill-opacity:1;stroke:#1d1d1d;stroke-width:0.303527;stroke-opacity:1"
               id="path14"
               cx="473.17145"
               cy="352.57935"
               rx="1.975885"
               ry="1.8174862" /><ellipse
               style="fill:#ffffff;fill-opacity:1;stroke:none;stroke-width:0.291674;stroke-opacity:1"
               id="path16"
               cx="474.15762"
               cy="352.62985"
               rx="0.45993859"
               ry="0.44474638" /></g></g><g
           id="g26"><ellipse
             style="fill:#cccccc;fill-opacity:1;stroke:#1d1d1d;stroke-width:0.500086;stroke-dasharray:none;stroke-opacity:1"
             id="path13"
             cx="208.05823"
             cy="539.5235"
             rx="6.7276635"
             ry="6.0163445"
             transform="matrix(0.84568768,-0.53367813,0.51131457,0.85939363,0,0)" /><ellipse
             style="fill:#ffffff;fill-opacity:1;stroke:none;stroke-width:0.350055;stroke-opacity:1"
             id="ellipse16"
             cx="451.19861"
             cy="353.02136"
             rx="5.7911735"
             ry="5.6945868" /><g
             id="g18"
             transform="rotate(-163.36729,461.02326,354.80954)"><ellipse
               style="fill:#1d1d1d;fill-opacity:1;stroke:#1d1d1d;stroke-width:0.303527;stroke-opacity:1"
               id="ellipse17"
               cx="473.17145"
               cy="352.57935"
               rx="1.975885"
               ry="1.8174862" /><ellipse
               style="fill:#ffffff;fill-opacity:1;stroke:none;stroke-width:0.291674;stroke-opacity:1"
               id="ellipse18"
               cx="474.15762"
               cy="352.62985"
               rx="0.45993859"
               ry="0.44474638" /></g></g><g
           id="g24"><path
             style="fill:#fdd09e;fill-opacity:1;stroke:#1d1d1b;stroke-width:0.3;stroke-dasharray:none;stroke-opacity:1"
             d="m 459.70904,356.89886 c 0,0 -1.99271,1.63505 -1.63789,2.97469 0.22615,0.85382 1.10289,0.83329 1.10289,0.83329 0,0 1.42051,-0.28037 1.91578,-0.24639 0.49805,0.0342 2.01705,0.49553 2.52074,0.22894 0.50366,-0.2666 0.99117,-1.06464 0.6104,-1.68617 -0.45015,-0.73479 -1.65989,-2.33239 -1.63995,-2.33383 z"
             id="path11"
             sodipodi:nodetypes="cscssscc" /><path
             style="fill:#caa67e;fill-opacity:1;stroke:#caa67e;stroke-width:0.264583;stroke-opacity:1"
             d="m 462.08087,357.56521 c 0,0 1.94893,1.87259 1.49199,2.86551 0.15765,-0.043 0.47745,-0.29646 0.49828,-0.77667 0.0388,-0.28175 -0.0555,-0.5172 -0.21583,-0.72967 l -1.1296,-1.61304 z"
             id="path12"
             inkscape:label="path12"
             sodipodi:nodetypes="cccccc" /><ellipse
             style="fill:#1d1d1b;fill-opacity:1;stroke-width:0.31173"
             id="path10"
             cx="471.04535"
             cy="342.5737"
             rx="2.0466595"
             ry="1.1922057"
             transform="matrix(0.99954564,0.03014144,-0.02798384,0.99960837,0,0)" /><ellipse
             style="fill:#fcefd3;fill-opacity:1;stroke:none;stroke-width:0.383281;stroke-opacity:1"
             id="path18"
             cx="406.91635"
             cy="412.19302"
             rx="0.36285463"
             ry="0.67636675"
             transform="matrix(0.99275515,-0.12015493,0.13279593,0.9911434,0,0)" /><path
             style="fill:#fcefd3;fill-opacity:1;stroke:#1d1d1d;stroke-width:0.3;stroke-dasharray:none;stroke-opacity:1"
             d="m 459.66106,360.64373 c -0.002,0.59152 -6.8e-4,1.17397 -0.005,1.77455 -0.008,-0.0145 -0.0707,0.87958 0.79587,0.96287 0.82894,0.0797 0.88549,-0.38541 0.89278,-0.4069 l 0.0297,-2.4897 c 0.5022,0.0393 0.96914,0.10774 1.45011,0.25131 l 0.0361,1.99262 c -0.0289,0.10703 0.1607,0.68377 -0.68087,0.70692 -0.73268,0.0202 -0.8364,-0.43697 -0.83903,-0.60286 l -0.002,-2.2953 c -0.52631,-0.13399 -1.05544,-0.10528 -1.67745,0.10649 z"
             id="path19"
             sodipodi:nodetypes="ccsccccscccc" /></g><g
           id="g27"><path
             style="fill:#fdd09e;fill-opacity:1;stroke:#1d1d1d;stroke-width:0.3;stroke-dasharray:none;stroke-opacity:1"
             d="m 472.39121,366.52219 -0.21466,3.65517 c 0,0 -0.32363,1.87181 0.71499,1.89577 0.83274,0.0192 0.96922,-1.18048 1.05001,-1.62873 0.25847,-1.43405 0.42386,-4.23768 0.42386,-4.23768"
             id="path20"
             sodipodi:nodetypes="ccssc" /><path
             style="fill:#caa67e;fill-opacity:1;stroke:none;stroke-width:0.264583;stroke-opacity:1"
             d="m 474.24682,366.19935 c -0.0451,1.29731 -0.19605,2.47307 -0.35342,3.64141 0,0 -0.0256,-0.55522 -0.0178,-1.09643 0.009,-0.54118 -0.37462,-2.40117 -0.37462,-2.40117 z"
             id="path21"
             sodipodi:nodetypes="ccccc" /></g><g
           id="g28"><path
             style="fill:#fdd09e;fill-opacity:1;stroke:#1d1d1d;stroke-width:0.3;stroke-dasharray:none;stroke-opacity:1"
             d="m 447.55027,366.41756 c 0,0 3.17525,0.11319 4.19378,-0.43794 0.91355,-0.49432 1.52194,-0.075 1.63454,0.47492 0.0701,0.34224 -0.0519,0.73504 -0.41188,0.98957 -1.542,1.09024 -4.07395,1.11014 -5.75801,0.90741"
             id="path22"
             sodipodi:nodetypes="csssc" /><path
             style="fill:#fcefd3;fill-opacity:1;stroke:none;stroke-width:0.255592;stroke-opacity:1"
             d="m 450.91652,366.41742 c 1.11378,-0.27733 1.67671,-0.89749 2.26886,-0.0889 0.17192,0.23586 0.12275,0.88879 -0.52945,1.14186 0.41193,-1.04609 -0.80732,-1.1736 -1.35756,-1.12733 z"
             id="path23"
             sodipodi:nodetypes="ccccc" /></g></g><g
         id="g81"
         transform="translate(0.22560885,4.133061)"><text
           xml:space="preserve"
           style="font-size:22.5778px;fill:#000000;fill-opacity:1;stroke:#ba1111;stroke-width:0.3;stroke-linecap:round;stroke-dasharray:none;stroke-opacity:1"
           x="32.670498"
           y="188.99274"
           id="text80"><tspan
             sodipodi:role="line"
             id="tspan80"
             style="font-size:22.5778px;fill:#000000;fill-opacity:1;stroke:#ba1111;stroke-width:0.3;stroke-dasharray:none;stroke-opacity:1"
             x="32.670498"
             y="188.99274">I WANT</tspan></text><text
           xml:space="preserve"
           style="font-size:22.5778px;fill:#ba1111;fill-opacity:1;stroke:#000000;stroke-width:0.7;stroke-linecap:round;stroke-dasharray:none;stroke-opacity:1"
           x="118.34234"
           y="188.98172"
           id="text81"><tspan
             sodipodi:role="line"
             id="tspan81"
             style="font-size:22.5778px;stroke:#000000;stroke-width:0.7;stroke-dasharray:none;stroke-opacity:1"
             x="118.34234"
             y="188.98172">YOU</tspan></text></g></g></g></svg>
